<?xml version="1.0" encoding="UTF-8"?>
<svg id="Layer_2" data-name="Layer 2" xmlns="http://www.w3.org/2000/svg" viewBox="0 0 535 436.42">
  <path d="M407.47,304.62c-2.98-3.9-9.19-10.42-10.55-18.57,4.16,7.23,17.03,4.14,24.15,5.04-11.12-6.62-21.89-17.59-20.26-33.83,3.05-32.79,2.82-70.74-13.51-115.21-25.79-70.23-81.07-119-134.26-106.09-18.82,4.57-19.34-3.61-38.15,3.61-18.81,7.23-65.16,57.42-79.13,110.1-13.97,52.67-6.13,63.82-.39,79.94,2.1,5.9,4.63,11.72,5.4,20.29.78,6.66-4.1,30-16.93,44.14,4.97-4.21,15.52-7.08,19.6-12.7-.34,7.58-13.4,23.53-17.26,31.33-4.57,9.23-38.91,74.45-21.36,94.24,2.4,1.99,38.22,13.54,67.67,20.38,70.93,12.01,171.17,15.24,232.58-9.44,9.33-3.75,23.26-8.89,29.89-12.68,14.54-27.03-18.74-89.14-27.47-100.55Z" style="fill: #eadead; stroke-width: 0px;"/>
</svg>