<?xml version="1.0" encoding="UTF-8"?>
<svg id="Layer_2" data-name="Layer 2" xmlns="http://www.w3.org/2000/svg" viewBox="0 0 535 389">
  <path d="M278.83,88.4c7.46,1.98,19.78,14.82,21.73,20.08-15.37-14.63-28.93-16.5-43.13-13.5,1.87-11.02,14.72-8.36,21.4-6.58Z" style="fill: #514139; stroke-width: 0px;"/>
  <path d="M241.17,88.58c-6.11.92-17.78,12.73-19.35,18,11.14-8.57,29.34-14.69,35.51-11.51.64-8.14-11.27-7.22-16.16-6.49Z" style="fill: #514139; stroke-width: 0px;"/>
  <path d="M193.42,233.81c-1.64-4.08-6.29-14.84-6-18.24,19.29-15.09,19.29-44.66,24.24-67.59,4.85-22.41,20.88-56.88,32.14-58.35,11.27-1.47,13.41,4.96,13.41,4.96,4.41-5.88,18.46-10.71,26.57-1.96,3.43,3.7,12.2,15.02,15.55,29.02,3.24,13.55,4.17,28.55,17.14,43.47,5.6,6.44,12.15,9.36,19.12,9.85,7.94.57,15.76-2.19,21.91-7.26,6.35-5.24,5.98-4.02,3.56-11.89-4.96-16.11-20.31-46.57-41.23-65.71-10.35-9.47-29.32-22.05-61.8-21.55-22.96.35-40.38,4.13-54.45,16.87-7.33,6.64-15.66,15.59-22.74,27.57-9,15.24-12.57,32.22-14.29,40.97-.85,4.08-2.22,10.3-2.89,18-5.63,64.22,9.05,62.53,9.92,77.76.98,17.14-.48,18.11-.58,23.25-.18,9.32,8.36,20.71,14.97,23.28-5.33-6.98-12.54-21.48-.18-33.06,5.88-5.51,8.69-21.8,5.63-29.39Z" style="fill: #685345; stroke-width: 0px;"/>
</svg>