<?xml version="1.0" encoding="UTF-8"?>
<svg id="Layer_2" data-name="Layer 2" xmlns="http://www.w3.org/2000/svg" xmlns:xlink="http://www.w3.org/1999/xlink" viewBox="0 0 535 389">
  <defs>
    <linearGradient id="linear-gradient" x1="266.99" y1="388.08" x2="266.99" y2="149.89" gradientUnits="userSpaceOnUse">
      <stop offset="0" stop-color="#7f7069"/>
      <stop offset="1" stop-color="#685345"/>
    </linearGradient>
  </defs>
  <path d="M390.41,289.99c-1.61-3.32-5.71-9.72-5.39-17.27,3.8,6.86,13.71,9.06,20.2,9.92-10.14-6.27-19.71-19.59-18.23-35,2.78-31.1,6.55-75.63-8.34-117.82-23.51-66.61-77.88-104.33-126.37-92.08-17.16,4.33-17.63-3.43-34.78,3.43-17.14,6.86-61.22,46.53-73.96,96.49-12.73,49.96-3.76,68.46,1.47,83.76,1.91,5.6,4.22,11.11,4.92,19.24.71,6.32-.45,25.82-12.14,39.23,5.03-3.11,11.13-5.33,13.41-13.22-.31,7.19-2.54,15.44-6.06,22.84-4.16,8.76-26.77,30.44-28.62,42.88,2.19,1.89,34.84,12.84,61.68,19.33,64.65,11.39,156.03,14.45,212.01-8.95,8.5-3.56,21.21-8.44,27.24-12.03-.12-13.84-21.15-28.57-27.05-40.74Z" style="fill: url(#linear-gradient); stroke-width: 0px;"/>
  <path d="M357.13,184.46c-.5,31.15-19.66,91.92-88.9,93.06-59.27.98-97.96-45.8-98.69-89.39-.88-51.95,42.38-99.14,92.99-99.14s95.43,43.52,94.6,95.47Z" style="fill: #5e524c; stroke-width: 0px;"/>
  <path d="M267.64,294.07c26.81-.66,78.21,7.11,95.84,57.29-46.62,15.61-140.96,13.3-185.27.35,14.63-43.82,59.68-56.9,89.43-57.63Z" style="fill: #efe7c2; stroke-width: 0px;"/>
  <g>
    <path d="M345.85,162.66v25.4c5.72-.64,16.98-1.4,23.88,1.39,0,0-16.02.07-23.88,1.77v21.4c15.55,0,35.63-4.41,35.63-25.59s-20.08-24.37-35.63-24.37Z" style="fill: #f4e7dc; stroke-width: 0px;"/>
    <path d="M343.27,188.53l.46,3.67c.74-.38,1.82-.7,3.12-.98v-3.16c-2.2.24-3.58.47-3.58.47Z" style="fill: #eac2b7; stroke-width: 0px;"/>
    <path d="M346.85,188.06v3.16c7.85-1.7,23.88-1.77,23.88-1.77-6.9-2.79-18.16-2.03-23.88-1.39Z" style="fill: #eac2b7; stroke-width: 0px;"/>
  </g>
  <g>
    <path d="M179.06,168.05v25.4c-5.72-.64-16.98-1.4-23.88,1.39,0,0,16.02.07,23.88,1.77v21.4c-15.55,0-35.63-4.41-35.63-25.59,0-21.31,20.08-24.37,35.63-24.37Z" style="fill: #f4e7dc; stroke-width: 0px;"/>
    <path d="M182.64,193.92l-.46,3.67c-.74-.38-1.82-.7-3.12-.98v-3.16c2.2.24,3.58.47,3.58.47Z" style="fill: #eac2b7; stroke-width: 0px;"/>
    <path d="M179.06,193.45v3.16c-7.85-1.7-23.88-1.77-23.88-1.77,6.9-2.79,18.16-2.03,23.88-1.39Z" style="fill: #eac2b7; stroke-width: 0px;"/>
  </g>
  <g>
    <path d="M287.1,276.77l-.5-26.8-34.16,1.1.34,27.42c7.64,3,19.8,5.14,34.32-1.73Z" style="fill: #eac2b7; stroke-width: 0px;"/>
    <path d="M252.78,278.49l.39,30.98s.73,26.82,17.63,26.45,16.9-26.82,16.9-26.82l-.6-32.34c-14.52,6.87-26.68,4.73-34.32,1.73Z" style="fill: #f4e7dc; stroke-width: 0px;"/>
  </g>
  <path d="M353.22,173.88c-1.72,58.58-41.27,92.96-85.36,92.8-53.27-.18-95.19-38.07-96.84-88.08-1.72-51.92,42.36-98.43,92.98-98.43s90.75,41.77,89.22,93.7Z" style="fill: #f9f0e8; stroke-width: 0px;"/>
  <circle cx="216.81" cy="194.6" r="15.8" style="fill: #fcd3d0; stroke-width: 0px;"/>
  <circle cx="308.28" cy="191.83" r="15.8" style="fill: #fcd3d0; stroke-width: 0px;"/>
  <path d="M227.65,165.86c-1.65.07-3.2.52-4.58,1.27-.79.43-1.19.76-1.77,1.14,0,0-2.18,1.43-2.18,1.43-1.09.62-2.04,1.01-3.35,1.38-5.07,1.43-10.56-.6-10.56-.6,0,0,2.22,7.06,8.91,6.02,2.97.64,2.54,3.92,3.31,5.88.03.08.08.14.14.18,1.71,4.87,6.14,8.24,11.18,8.02,6.28-.28,11.13-6.03,10.83-12.86-.3-6.82-5.64-12.13-11.92-11.85Z" style="fill: #685345; stroke-width: 0px;"/>
  <path d="M299.43,162.92c1.65.07,3.2.52,4.58,1.27.79.43,1.19.76,1.77,1.14,0,0,2.18,1.43,2.18,1.43,1.09.62,2.04,1.01,3.35,1.38,5.07,1.43,10.56-.6,10.56-.6,0,0-2.22,7.06-8.91,6.02-2.97.64-2.54,3.92-3.31,5.88-.03.08-.08.14-.14.18-1.71,4.87-6.14,8.24-11.18,8.02-6.28-.28-11.13-6.03-10.83-12.86.3-6.82,5.64-12.13,11.92-11.85Z" style="fill: #685345; stroke-width: 0px;"/>
  <path d="M263.27,193.36s2.67,3.97.79,10.31c-1.12,3.78.69,1.93,1.79.64,2.02-3.49,2.63-6.67.24-9.98-1.84-2.57-5.12-3.5-2.82-.97Z" style="fill: #eac2b7; stroke-width: 0px;"/>
  <path d="M277.08,220.67s-7.92,7.37-22.09,1.64c-6.96-2.81-3.75,1.07-1.44,3.32,6.38,4.26,15.15,4.13,21.72,0,5.11-3.17,6.89-9.01,1.81-4.96Z" style="fill: #f2af97; stroke-width: 0px;"/>
  <path d="M292.27,147.04c1.97-.6,10.22-1.13,14.39,1.29s7.54,1.43,3.57-1.95c-3.97-3.39-11.89-3.57-15.59-3.05-3.9.55-6.97,5.11-2.36,3.72Z" style="fill: #514139; stroke-width: 0px;"/>
  <path d="M227.87,144.91c-4.17-.76-11.62.43-16.21,3.06s-4.06,5.04.55,2.82c5.75-2.78,16.19-2.17,18.51-1.93,2.95.3,5.23-2.48-2.85-3.95Z" style="fill: #514139; stroke-width: 0px;"/>
  <path d="M278.83,88.4c7.46,1.98,19.78,14.82,21.73,20.08-15.37-14.63-28.93-16.5-43.13-13.5,1.87-11.02,14.72-8.36,21.4-6.58Z" style="fill: #514139; stroke-width: 0px;"/>
  <path d="M241.17,88.58c-6.11.92-17.78,12.73-19.35,18,11.14-8.57,29.34-14.69,35.51-11.51.64-8.14-11.27-7.22-16.16-6.49Z" style="fill: #514139; stroke-width: 0px;"/>
  <path d="M193.42,233.81c-1.64-4.08-6.29-14.84-6-18.24,19.29-15.09,19.29-44.66,24.24-67.59,4.85-22.41,20.88-56.88,32.14-58.35,11.27-1.47,13.41,4.96,13.41,4.96,4.41-5.88,18.46-10.71,26.57-1.96,3.43,3.7,12.2,15.02,15.55,29.02,3.24,13.55,4.17,28.55,17.14,43.47,9.8,11.27,22.53,11.76,35.27,7.35l31.84-10.29s-26.82-60.24-59.51-84.86c-31.62-23.8-48.49-19.1-74.2-21.67-17.4-1.74-39.33-3.66-70.9,31.59-20.11,22.47-37.84,76.13-37.84,76.13,0,0,14.99,5.1,22.53,8.6-5.63,64.22,9.05,62.53,9.92,77.76.98,17.14-.48,18.11-.58,23.25-.18,9.32,8.36,20.71,14.97,23.28-5.33-6.98-12.54-21.48-.18-33.06,5.88-5.51,8.69-21.8,5.63-29.39Z" style="fill: #685345; stroke-width: 0px;"/>
  <path d="M254.52,89.19s6.49,13.22,4.04,21.55-4.04,12.24-9.43,16.41c5.39-1.47,14.46-12.63,15.92-18.12,1.65-6.24,2.45-15.18-7.1-20.08l-3.43.24Z" style="fill: #685345; stroke-width: 0px;"/>
  <path d="M253.17,308.26l1.22,53.5c13.47.61,19.95.71,34.3.27l-.87-54.14-15.24,18.33c-.87,1.05-2.48,1.08-3.39.06l-16.03-18.02Z" style="fill: #edf2f1; stroke-width: 0px;"/>
</svg>