<?xml version="1.0" encoding="UTF-8"?>
<svg id="Layer_2" data-name="Layer 2" xmlns="http://www.w3.org/2000/svg" viewBox="0 0 535 436.22">
  <path d="M253.04,35.95c-18.82,4.57-19.34-3.61-38.15,3.61-18.81,7.23-65.16,57.42-79.13,110.1-13.97,52.67-6.13,63.82-.39,79.94,2.1,5.9,4.63,11.72,5.4,20.29.78,6.66-4.1,30-16.93,44.14,4.97-4.21,15.52-7.08,19.6-12.7-.34,7.58-13.4,23.53-17.26,31.33-4.57,9.23-38.91,74.45-21.36,94.24,2.4,1.99,38.22,13.54,67.67,20.38,27.93,4.73,60.42,8.09,93.29,8.93V34.03c-4.25.27-8.49.9-12.73,1.93Z" style="fill: #eadead; stroke-width: 0px;"/>
</svg>