<?xml version="1.0" encoding="UTF-8"?>
<svg id="Layer_2" data-name="Layer 2" xmlns="http://www.w3.org/2000/svg" viewBox="0 0 535 389">
  <path d="M299.43,162.92c1.65.07,3.2.52,4.58,1.27.79.43,1.19.76,1.77,1.14,0,0,2.18,1.43,2.18,1.43,1.09.62,2.04,1.01,3.35,1.38,5.07,1.43,10.56-.6,10.56-.6,0,0-2.22,7.06-8.91,6.02-2.97.64-2.54,3.92-3.31,5.88-.03.08-.08.14-.14.18-1.71,4.87-6.14,8.24-11.18,8.02-6.28-.28-11.13-6.03-10.83-12.86.3-6.82,5.64-12.13,11.92-11.85Z" style="fill: #685345; stroke-width: 0px;"/>
</svg>